<svg id="Capa_1" enable-background="new 0 0 512 512" height="512" viewBox="0 0 512 512" width="512" xmlns="http://www.w3.org/2000/svg"><g><g><g><g><path d="m241 466.11-233.5-49.549v-303.349c0-9.541 7.711-17.275 17.223-17.275h167.069c27.177 0 49.208 22.098 49.208 49.356z" fill="#eaf6ff"/><path d="m191.792 95.937h-30c27.177 0 49.208 22.098 49.208 49.356v314.451l30 6.366v-320.816c0-27.259-22.031-49.357-49.208-49.357z" fill="#d8ecfe"/><path d="m241 469.972h-216.277c-9.512 0-17.223-7.734-17.223-17.275v-57.725h187.773c25.254 0 45.727 20.473 45.727 45.727z" fill="#d8ecfe"/><path d="m195.273 394.972h-30c25.254 0 45.727 20.473 45.727 45.727v29.273h30v-29.273c0-25.254-20.473-45.727-45.727-45.727z" fill="#c4e2ff"/></g><path d="m241 466.11 233.5-49.549v-303.349c0-9.541-7.711-17.275-17.223-17.275h-167.069c-27.177 0-49.208 22.098-49.208 49.356z" fill="#eaf6ff"/><path d="m222.297 216.226 30.103 82.211 126.214-21.185-35.428-103.329z" fill="#ffb09e"/><path d="m457.277 95.937h-30c9.512 0 17.223 7.734 17.223 17.275v303.349h30v-303.349c0-9.541-7.711-17.275-17.223-17.275z" fill="#d8ecfe"/><path d="m241 469.972h216.277c9.512 0 17.223-7.734 17.223-17.275v-57.725h-187.773c-25.254 0-45.727 20.473-45.727 45.727z" fill="#d8ecfe"/><path d="m444.5 394.972v57.725c0 9.541-7.711 17.275-17.223 17.275h30c9.512 0 17.223-7.734 17.223-17.275v-57.725z" fill="#c4e2ff"/></g><g><g fill="#ffb09e"><path d="m243.133 347.861c-10.578-1.183-18.195-10.717-17.012-21.295l3.734-33.39 38.307 4.283-3.734 33.39c-1.183 10.578-10.717 18.195-21.295 17.012z"/><path d="m281.44 352.144c-10.578-1.183-18.195-10.717-17.012-21.295l3.734-33.39 38.307 4.283-3.734 33.39c-1.183 10.579-10.717 18.195-21.295 17.012z"/><path d="m319.747 356.428c-10.578-1.183-18.195-10.717-17.012-21.295l3.734-33.39 38.307 4.283-3.734 33.39c-1.183 10.578-10.717 18.195-21.295 17.012z"/></g><g><path d="m502 331.091h-155.042l-94.426-13.754c-9.284-1.352-16.334-9.051-16.866-18.418-.591-10.397 6.994-19.465 17.332-20.72l48.735-5.92c16.903-2.053 30.419-15.022 33.168-31.826l.23-1.407c2.419-14.783-4.005-29.618-16.441-37.968-14.421-9.684-33.55-8.449-46.603 3.013-14.14 12.417-32.051 28.145-44.291 38.895-7.786 6.839-19.654 6.007-26.413-1.848l-.303-.352c-6.608-7.68-6.184-19.047.915-26.144 15.941-15.937 43.139-43.133 58.178-58.171 6.913-6.913 16.289-10.796 26.065-10.796h60.188c9.777 0 19.153 3.884 26.066 10.797l56.785 56.785c8.004 8.004 18.859 12.5 30.177 12.5h42.546c5.523 0 10 4.477 10 10v85.336c0 5.521-4.477 9.998-10 9.998z" fill="#ffcebf"/><g><path d="m227.796 242.985c12.24-10.751 30.15-26.479 44.291-38.895 3.12-2.739 6.589-4.888 10.255-6.449-13.345-5.688-29.042-3.398-40.255 6.449-13.04 11.45-29.275 25.707-41.323 36.289.109.134.204.275.317.406l.303.352c6.758 7.855 18.626 8.687 26.412 1.848z" fill="#ffb09e"/></g><g><path d="m191.493 349.205c-5.408 3.728-8.942 1.231-8.418-5.317 0 0-1.525-32.958-1.067-34.461.483-1.585 1.146-3.114 1.98-4.558l129.017-223.464 18.769-21.676c6.58-11.396 25.975-10.424 25.975-10.424 11.396 6.58 12.538 16.402 5.959 27.798l-9.434 28.129-129.017 223.464c-.812 1.406-1.776 2.714-2.871 3.9-1.094 1.186-30.893 16.609-30.893 16.609z" fill="#f58a97"/><path d="m360.796 50.313c-8.791-5.075-13.975-5.6-21.419.428 8.963 7.245 6.739 16.662.795 26.957l-8.396 14.543-136.518 236.455c-1.624 2.813-3.854 5.229-6.529 7.072l-9.882 6.811-.443 5.534c-.524 6.548 6.788 10.769 12.196 7.042l28.129-19.386c2.675-1.843 4.905-4.259 6.529-7.072l129.017-223.464 13.391-24.592c6.579-11.398-6.87-30.328-6.87-30.328z" fill="#f07281"/><path d="m361.45 45.151c-11.396-6.58-25.969-2.675-32.548 8.721l-15.896 27.533 41.269 23.827 15.896-27.533c6.579-11.396 2.675-25.969-8.721-32.548z" fill="#fef1da"/><path d="m361.45 45.151c-8.791-5.075-19.469-3.907-26.913 2.121 8.963 7.245 11.578 20.131 5.634 30.427l-8.396 14.543 22.5 12.99 15.896-27.533c6.579-11.396 2.675-25.969-8.721-32.548z" fill="#fae2c0"/><path d="m182.012 309.429c-.458 1.503-.757 3.055-.883 4.631l-2.725 34.054c-.524 6.548 6.788 10.769 12.196 7.042l28.129-19.386c1.302-.897 2.496-1.932 3.569-3.081z" fill="#fef1da"/><path d="m222.295 332.69c.001-.001.001-.002.002-.003l-22.008-12.706-5.031 8.715c-1.624 2.813-3.854 5.229-6.529 7.072l-9.882 6.811-.443 5.534c-.524 6.548 6.788 10.769 12.196 7.042l28.129-19.386c1.298-.895 2.491-1.929 3.566-3.079z" fill="#fae2c0"/></g><path d="m504.5 331.091h-157.542l-94.426-13.754c-9.284-1.352-16.334-9.051-16.866-18.418-.591-10.397 6.994-19.465 17.332-20.72l48.735-5.92c16.903-2.053 30.419-15.022 33.168-31.826l.23-1.407c2.419-14.783-4.005-29.618-16.441-37.968z" fill="#ffcebf"/><path d="m502 225.755h-30c5.523 0 10 4.477 10 10v85.336c0 5.523-4.477 10-10 10h30c5.523 0 10-4.477 10-10v-85.336c0-5.523-4.477-10-10-10z" fill="#ffb09e"/></g></g></g><path d="m133.262 343.437h-84.512c-4.142 0-7.5 3.358-7.5 7.5s3.358 7.5 7.5 7.5h84.512c4.142 0 7.5-3.358 7.5-7.5s-3.358-7.5-7.5-7.5zm371.238-19.844h-156.996l-93.893-13.681c-5.66-.804-10.131-5.68-10.451-11.373-.362-6.447 4.277-12.117 10.723-12.888l48.755-5.923c20.56-2.504 36.543-19.012 39.894-39.473 2.887-17.63-4.831-35.455-19.664-45.411-2.806-1.882-5.827-3.441-8.974-4.662l21.366-37.009h11.17c7.731 0 15.296 3.134 20.758 8.604l20.123 20.12c2.929 2.928 7.678 2.928 10.606-.001 2.929-2.929 2.929-7.678-.001-10.606l-20.119-20.115c-8.25-8.262-19.683-13-31.367-13h-2.51l20.056-34.74h93.305c5.359 0 9.72 4.387 9.72 9.78v105.04h-7.54c-9.405 0-18.239-3.658-24.877-10.304l-11.8-11.797c-2.931-2.93-7.68-2.928-10.606.001-2.929 2.929-2.929 7.678.001 10.606l11.796 11.794c9.468 9.479 22.07 14.7 35.486 14.7h45.04c4.143 0 7.5-3.358 7.5-7.5s-3.357-7.5-7.5-7.5h-22.501v-105.04c0-13.664-11.089-24.78-24.72-24.78h-84.645l4.026-6.974c8.598-14.74 3.156-34.374-11.462-42.802-14.867-8.571-34.332-3.344-42.794 11.466l-22.118 38.31h-10.077c-21.037 0-39.421 11.553-49.21 28.656-9.789-17.102-28.173-28.656-49.21-28.656h-167.07c-13.631-.002-24.72 11.115-24.72 24.778v339.484c0 13.661 11.09 24.775 24.723 24.775h432.555c13.632 0 24.723-11.114 24.723-24.775v-114.104h22.5c4.143 0 7.5-3.358 7.5-7.5s-3.358-7.5-7.501-7.5zm-194.015 9.764 23.306 3.396c-.337 6.929-5.883 13.035-13.209 12.216-7.792-.87-11.736-8.496-10.097-15.612zm-38.166-5.561 23.313 3.397c-.207 7.375-5.157 14.409-13.361 13.497-8.256-.919-11.991-9.449-9.952-16.894zm42.192-120.496c9.97 6.693 15.158 18.677 13.217 30.539-2.273 13.889-12.728 25.304-26.902 26.999l-32.3 3.927 37.735-65.362c2.915.884 5.711 2.195 8.25 3.897zm20.885-149.678c4.396-7.731 14.584-10.424 22.308-5.972 7.662 4.417 10.455 14.634 5.971 22.303l-12.144 21.034-28.28-16.328zm-19.645 34.028 28.281 16.328-94.193 163.153c-12.519 2.586-21.699 13.657-21.699 26.642 0 2.872.464 5.835 1.365 8.556l-9.461 16.397-28.276-16.325 31.858-55.181c.008-.014.016-.028.024-.042zm-106.996 241.879c-.227-.376-22.879 15.183-22.879 15.183l2.176-27.136zm39.745-188.236c-.003-23.637 19.605-42.609 43.128-41.86l-21.904 37.94c-5.537 2.226-10.626 5.566-14.848 9.787l-6.376 6.376zm-.839 34.296-34.761 60.211c-8.773-2.034-11.863-13.586-5.596-19.853 1.33-1.331 39.127-39.128 40.357-40.358zm-14.161 224.127c-9.683-10.006-23.236-16.244-38.227-16.244h-102.837c-4.142 0-7.5 3.358-7.5 7.5s3.358 7.5 7.5 7.5h102.837c21.079 0 38.227 17.148 38.227 38.227v21.773h-208.777c-5.361 0-9.723-4.385-9.723-9.775v-50.225h42.436c4.142 0 7.5-3.358 7.5-7.5s-3.358-7.5-7.5-7.5h-42.436v-274.259c0-5.393 4.36-9.78 9.72-9.78h167.07c22.999 0 41.71 18.778 41.71 41.86v27.243l-36.803 36.803c-13.365 13.069-8.617 36.447 8.577 43.667l-27.771 48.103c-2.164 3.729-3.5 8.075-3.849 12.354l-2.73 34.056c-.472 5.944 2.443 11.488 7.607 14.466 5.152 2.972 11.41 2.732 16.326-.657l27.405-18.89c2.634 4.421 6.524 8.033 11.239 10.329v50.949zm10.467-63.306c-5.811-.652-10.142-5.372-10.433-11.049l5.605-9.714c3.576 2.658 7.792 4.45 12.31 5.108l6.02.877-.492 4.389c-.721 6.448-6.56 11.111-13.01 10.389zm223.033 112.287c0 5.39-4.361 9.775-9.723 9.775h-208.777v-21.773c0-21.079 17.148-38.227 38.228-38.227h180.272zm0-65.225h-180.272c-14.991 0-28.544 6.239-38.228 16.245v-48.452c5.179-.631 9.973-2.742 13.861-5.966 4.46 5.806 10.964 9.486 18.249 10.298 7.253.809 14.649-1.507 20.053-6.019 4.46 5.804 10.966 9.486 18.249 10.299 15.017 1.676 28.911-10.145 29.767-25.283h118.321zm-418.25-186.535h129.512c4.142 0 7.5-3.358 7.5-7.5s-3.358-7.5-7.5-7.5h-129.512c-4.142 0-7.5 3.358-7.5 7.5s3.358 7.5 7.5 7.5zm0-52.5h144.512c4.142 0 7.5-3.358 7.5-7.5s-3.358-7.5-7.5-7.5h-144.512c-4.142 0-7.5 3.358-7.5 7.5s3.358 7.5 7.5 7.5zm99.512 142.5h-99.512c-4.142 0-7.5 3.358-7.5 7.5s3.358 7.5 7.5 7.5h99.512c4.142 0 7.5-3.358 7.5-7.5s-3.358-7.5-7.5-7.5zm15-52.5h-114.512c-4.142 0-7.5 3.358-7.5 7.5s3.358 7.5 7.5 7.5h114.512c4.142 0 7.5-3.358 7.5-7.5s-3.358-7.5-7.5-7.5z"/></g></svg>